<svg xmlns="http://www.w3.org/2000/svg" viewBox="0 0 1051.12 306.18"><g id="Diseño"><path d="M537.24,170.46c-12.17,9.94-35.84,15.95-36.08,15.94,3.41-10.72,9.34-28.6,12.8-39.3.7-.42,10.3-10.47,25.76-15,7-2,14.29-3,16.47,3.72,3.23,10-12,29-19,34.64m54.92-50.95C579.78,92,551.49,96.89,526.37,109.23c4.44-15.1-26.33-21.37-30.8-8.33-16.35,47.63-36,105.16-51.6,153-5.08,15.57,26.39,22.06,30.7,8.85,4.42-13.56,13.86-36.63,18.18-50.21a18.79,18.79,0,0,0,4.55,1c26.53,2.44,49.51-7.24,67.81-26.56,15-15.82,37.3-44.41,26.95-67.48"/><path d="M495.76,126.62c-6.54,17.82-8.35,27.08-22.19,40.26-5.14,4.9-14,13.74-23.2,21.3,7.09-33,30.21-69.33-.86-89.15-5.16-3.29-9-5.11-12.24-5.69l-.17-.13a.76.76,0,0,1,0,.11c-8.35-1.44-12,5.83-21.06,19.23-7.24,10.75-14.36,21.58-21.5,32.41,4.41-18.2,4.21-34.71-13.38-45.93-5.16-3.29-9-5.11-12.25-5.69l-.16-.13s0,.08,0,.11c-8.35-1.44-12,5.83-21.06,19.23-6.14,9.1-12.15,18.28-18.2,27.44,2.4-10.17,5.33-26,8.54-36.08.95-3.36-10.48-9.75-18.74-14a8,8,0,0,0-11.12,4.24c-6.32,16.69-22.53,62.63-22.53,108.42,0,4.2,29.09,19.69,30,18.35,5.18-8.07,26.82-47.11,46.21-75-1.13,3.84-2.1,7.37-2.73,10.39-2.91,14.08-8.31,32.35-2.73,46.32a8.62,8.62,0,0,0,2.13,2.63c5.53,5.9,24.7,16.79,25.43,15.66,5.18-8.07,26.83-47.11,46.22-75-1.13,3.84-2.11,7.37-2.73,10.39-2.92,14.08-8.32,32.35-2.74,46.32,2.1,5.24,13.85,14.2,19.46,14.15,14.18-.15,29.53-22.89,40.43-32.3,16.49-14.23,22.67-31,30.13-51.29,1.7-4.62-19-6.6-19-6.56"/><path d="M93.82,170.46C81.65,180.4,58,186.41,57.75,186.4c3.4-10.72,9.33-28.6,12.8-39.3.69-.42,10.29-10.47,25.76-15,7-2,14.28-3,16.47,3.72,3.22,10-12,29-19,34.64m54.92-50.95C136.37,92,108.08,96.89,83,109.23c4.43-15.1-26.33-21.37-30.81-8.33-16.35,47.63-36,105.16-51.6,153-5.08,15.57,26.39,22.06,30.7,8.85,4.43-13.56,13.87-36.63,18.19-50.21a18.6,18.6,0,0,0,4.54,1C80.51,216,103.5,206.31,121.79,187c15-15.82,37.31-44.41,27-67.48"/><path d="M194.54,189.36c-14.53-.57,5.29-74,47-61.63a230.15,230.15,0,0,1-13.72,29.14c-6.59,11.32-22.3,32.91-33.32,32.49m102.47-61c-6,29.78-27.07,59.34-32.18,59.34-4.48-1,4-27.2,6-34.34,4.09-14.76,9.61-34.19,14.35-48.74,2.22-6.81-24.69-14.12-29.31-6.06-.31.53-3.25,7.09-3.56,7.63-68.89-11.17-92.1,42.43-142.07,62.27-19.61,7.79-11.34,36-1.48,30,14-8.46,41-29.9,51.11-37.08-6.21,15.59-13.14,45.41,2.79,56s35.08.31,48.93-9.23c6.19-4.27,13-10.75,18.72-15.79.4,13.32,5.8,23.06,20.54,24.07,16.68,1.15,28.38-16.08,39.22-26.87,17.42-17.35,19.8-31.49,34.73-51,8.7-11.37-25.8-20.17-27.79-10.22"/><path d="M683.05,25c18.18,14-11.71,50.56-36.82,70.69,6.28-19.83,18.3-47.7,36.82-70.69M893.11,139.7c-8.75,16.49-18.09,25.81-37.61,41.66,7.55-32.51,29.14-67.75-1.31-87.17-5.15-3.29-9-5.1-12.23-5.69a1.18,1.18,0,0,0-.18-.13.42.42,0,0,0,0,.1c-8.35-1.44-12,5.83-21.06,19.23-6.14,9.1-12.15,18.28-18.2,27.44,2.4-10.16,5.87-23.78,9.07-33.84,1.37-4.83-21.07-13.25-25.32-12-3.62-1.2-35.08,43.5-49.93,62.84-3.23,4.2-6.78,9.58-10.61,15.24,3.5-17.51,17.81-44,20.33-61.74.55-3.89-33.14-17.5-34.4-15.86-17.53,23.07-65.32,80.26-75.88,86.83a2.66,2.66,0,0,1-4.06-2.57,391.23,391.23,0,0,1,8-40.08c9.66-9.86,16.7-16.1,26-26.06,24.11-25.67,57.4-74.08,32.15-96.51C666.1-16.91,646.3,13,634.48,42.55c-10.5,26.29-22.64,60.52-30,90-21.3,30.26-53.09,27.06-63.16,47.19-8.14,16.28-13.83,30.88-10.24,29.89,18.61-5.09,54-27.76,67.09-39.93,0,4.16-1.8,26.25-1.49,30.36.39,5.13,20.4,11.52,25.24,11.67,25.91.81,44.81-28.4,68.11-48.44-4.07,16.28,1.32,30.66,6.58,37.44,2.73,3.53,22,20.08,26.73,17.58,13.54-7.23,31.54-28.32,41.42-42.49-1.07,7.29-5.44,21.68-6.43,29-.56,4.16,26.09,19.62,26.95,18.27,5.27-8.2,31.29-57.86,51.21-87.58-1.79,6-3.45,11.49-4.37,15.89-2.92,14.09-10,37.38-4.44,51.35,2.09,5.24,20.37,17.69,26,17.63,21.65-.22,53-55.3,67.09-71.77.9-1.06-25.93-12.24-27.68-9"/><path d="M752.6,85.37c9-7.8,19-27.87,9.25-33.27-24.05-13.26-38.86.6-43.17,11.73-4.51,11.67,11.46,18.64,12.88,19.1,4.91,1.58,16.36,6.48,21,2.44"/><path d="M909.92,277.08c-26.78,14.25-4.49-12-1.21-14.81a152.71,152.71,0,0,1,15.66-11.52c-3,7.46-8.13,23-14.45,26.33m18.36-94.28c-23,14.23-10.92-21.77-5.11-32.52,12.78-23.67,25.09-33.51,43.64-26.6-8.62,22.31-22.42,49.15-38.53,59.12m97.85-36.05c-14.44,20.12-32.67,38.07-50.73,50.61,12.59-35.68,25.79-60.93,33.11-98.84.88-4.55-26.92-16-30.37-3.94-.2.74-2,5.69-2.19,6.45-27.4-7.32-56.87.48-75.56,24.5-12,15.49-30.15,65.13-14.1,82.55,14.88,16.15,39,3.91,55.4-9.13-1.05,3.2-4.21,13.11-6.58,19.72-16.13,9-30.91,20.31-45.55,32.27-18.24,14.89-45.38,45.8-6.68,54.12,36.62,7.87,57.68-27.39,71-55.17,3.36-7,8.34-15.07,11.35-22.27,13.83-7.38,24.22-17.28,36.31-27.14,21.45-17.47,35.61-32.6,49.46-56.59,1.29-2.24-17-8.18-24.92,2.86"/></g></svg>